<svg xmlns="http://www.w3.org/2000/svg" xmlns:xlink="http://www.w3.org/1999/xlink" preserveAspectRatio="xMidYMid" width="50.125" height="38.875" viewBox="0 0 50.125 38.875">
  <defs>
    <style>
      .cls-1 {
        fill: #a3bbc8;
        fill-rule: evenodd;
      }
    </style>
  </defs>
  <path d="M49.728,38.647 C49.323,38.977 48.825,38.860 48.820,38.859 L0.779,29.061 C0.765,29.058 0.397,28.986 0.157,28.674 C-0.082,28.363 -0.000,28.008 0.090,27.826 C0.178,27.646 6.501,14.895 6.672,14.570 C6.843,14.245 7.047,14.183 7.179,14.118 L42.373,0.068 C42.373,0.068 42.943,-0.120 43.338,0.119 C43.734,0.358 43.787,0.763 43.787,0.764 L50.038,37.843 C50.038,37.843 50.132,38.318 49.728,38.647 ZM43.477,35.948 L22.949,24.537 L5.426,28.187 L43.477,35.948 ZM45.743,35.110 L36.032,21.806 L25.693,23.965 L45.743,35.110 ZM2.736,26.924 L20.569,23.210 L8.047,16.227 L2.736,26.924 ZM9.709,15.055 L23.310,22.639 L35.682,20.056 L41.240,2.468 L9.709,15.055 ZM42.487,5.133 L37.584,20.653 L47.363,34.050 L42.487,5.133 Z" class="cls-1"/>
</svg>
