<svg xmlns="http://www.w3.org/2000/svg" xmlns:xlink="http://www.w3.org/1999/xlink" preserveAspectRatio="xMidYMid" width="16" height="20" viewBox="0 0 16 20">
  <defs>
    <style>
      .cls-1 {
        fill: #fe3e57;
        fill-rule: evenodd;
      }
    </style>
  </defs>
  <path d="M15.999,17.294 L14.854,4.396 C14.830,4.109 14.589,3.892 14.307,3.892 L11.953,3.892 C11.920,1.740 10.163,0.002 8.005,0.002 C5.847,0.002 4.090,1.740 4.057,3.892 L1.703,3.892 C1.417,3.892 1.180,4.109 1.156,4.396 L0.011,17.294 C0.011,17.311 0.007,17.327 0.007,17.343 C0.007,18.812 1.352,20.006 3.007,20.006 L13.003,20.006 C14.658,20.006 16.003,18.812 16.003,17.343 C16.003,17.327 16.003,17.311 15.999,17.294 L15.999,17.294 ZM8.005,1.106 C9.554,1.106 10.817,2.350 10.849,3.892 L5.161,3.892 C5.193,2.350 6.456,1.106 8.005,1.106 L8.005,1.106 ZM13.003,18.902 L3.007,18.902 C1.969,18.902 1.127,18.215 1.111,17.368 L2.206,5.001 L4.053,5.001 L4.053,6.678 C4.053,6.985 4.298,7.230 4.605,7.230 C4.911,7.230 5.157,6.985 5.157,6.678 L5.157,5.001 L10.849,5.001 L10.849,6.678 C10.849,6.985 11.095,7.230 11.401,7.230 C11.708,7.230 11.953,6.985 11.953,6.678 L11.953,5.001 L13.800,5.001 L14.899,17.368 C14.883,18.215 14.037,18.902 13.003,18.902 L13.003,18.902 Z" class="cls-1"/>
</svg>
