<svg xmlns="http://www.w3.org/2000/svg" xmlns:xlink="http://www.w3.org/1999/xlink" preserveAspectRatio="xMidYMid" width="16" height="16" viewBox="0 0 16 16">
  <defs>
    <style>
      .cls-1 {
        fill: #fe3e57;
        fill-rule: evenodd;
      }
    </style>
  </defs>
  <path d="M14.125,16.000 L1.875,16.000 C0.841,16.000 0.000,15.159 0.000,14.125 L0.000,3.125 C0.000,2.091 0.841,1.250 1.875,1.250 L2.625,1.250 L2.625,-0.000 L3.875,-0.000 L3.875,1.250 L12.125,1.250 L12.125,-0.000 L13.375,-0.000 L13.375,1.250 L14.125,1.250 C15.159,1.250 16.000,2.091 16.000,3.125 L16.000,14.125 C16.000,15.159 15.159,16.000 14.125,16.000 ZM14.750,3.125 C14.750,2.780 14.470,2.500 14.125,2.500 L13.375,2.500 L13.375,3.750 L12.125,3.750 L12.125,2.500 L3.875,2.500 L3.875,3.750 L2.625,3.750 L2.625,2.500 L1.875,2.500 C1.530,2.500 1.250,2.780 1.250,3.125 L1.250,4.625 L14.750,4.625 L14.750,3.125 ZM14.750,5.875 L1.250,5.875 L1.250,14.125 C1.250,14.469 1.530,14.750 1.875,14.750 L14.125,14.750 C14.470,14.750 14.750,14.469 14.750,14.125 L14.750,5.875 ZM12.375,9.687 L13.625,9.687 L13.625,10.937 L12.375,10.937 L12.375,9.687 ZM12.375,7.187 L13.625,7.187 L13.625,8.437 L12.375,8.437 L12.375,7.187 ZM9.875,12.187 L11.125,12.187 L11.125,13.437 L9.875,13.437 L9.875,12.187 ZM9.875,9.687 L11.125,9.687 L11.125,10.937 L9.875,10.937 L9.875,9.687 ZM9.875,7.187 L11.125,7.187 L11.125,8.437 L9.875,8.437 L9.875,7.187 ZM7.375,12.187 L8.625,12.187 L8.625,13.437 L7.375,13.437 L7.375,12.187 ZM7.375,9.687 L8.625,9.687 L8.625,10.937 L7.375,10.937 L7.375,9.687 ZM7.375,7.187 L8.625,7.187 L8.625,8.437 L7.375,8.437 L7.375,7.187 ZM4.875,12.187 L6.125,12.187 L6.125,13.437 L4.875,13.437 L4.875,12.187 ZM4.875,9.687 L6.125,9.687 L6.125,10.937 L4.875,10.937 L4.875,9.687 ZM4.875,7.187 L6.125,7.187 L6.125,8.437 L4.875,8.437 L4.875,7.187 ZM2.375,12.187 L3.625,12.187 L3.625,13.437 L2.375,13.437 L2.375,12.187 ZM2.375,9.687 L3.625,9.687 L3.625,10.937 L2.375,10.937 L2.375,9.687 ZM2.375,7.187 L3.625,7.187 L3.625,8.437 L2.375,8.437 L2.375,7.187 Z" class="cls-1"/>
</svg>
