<svg xmlns="http://www.w3.org/2000/svg" xmlns:xlink="http://www.w3.org/1999/xlink" preserveAspectRatio="xMidYMid" width="20" height="20" viewBox="0 0 20 20">
  <defs>
    <style>
      .cls-1 {
        fill: #fe3e57;
        fill-rule: evenodd;
      }
    </style>
  </defs>
  <path d="M17.071,17.062 C15.182,18.950 12.671,19.990 10.000,19.990 C7.329,19.990 4.818,18.950 2.929,17.062 C1.040,15.172 -0.000,12.661 -0.000,9.990 C-0.000,7.319 1.040,4.808 2.929,2.919 C4.818,1.031 7.329,-0.009 10.000,-0.009 C12.671,-0.009 15.182,1.031 17.071,2.919 C18.960,4.808 20.000,7.319 20.000,9.990 C20.000,12.661 18.960,15.172 17.071,17.062 ZM10.000,1.162 C5.132,1.162 1.172,5.123 1.172,9.990 C1.172,14.858 5.132,18.818 10.000,18.818 C14.868,18.818 18.828,14.858 18.828,9.990 C18.828,5.123 14.868,1.162 10.000,1.162 ZM9.189,13.199 C9.075,13.313 8.925,13.371 8.775,13.371 C8.625,13.371 8.475,13.313 8.360,13.199 L5.222,10.061 C4.994,9.832 4.994,9.461 5.222,9.232 C5.451,9.003 5.822,9.003 6.051,9.232 L8.775,11.956 L13.949,6.782 C14.178,6.553 14.549,6.553 14.777,6.782 C15.006,7.011 15.006,7.382 14.777,7.610 L9.189,13.199 Z" class="cls-1"/>
</svg>
