<svg xmlns="http://www.w3.org/2000/svg" xmlns:xlink="http://www.w3.org/1999/xlink" preserveAspectRatio="xMidYMid" width="23" height="25" viewBox="0 0 23 25">
  <defs>
    <style>
      .cls-1 {
        fill: #fff;
        fill-rule: evenodd;
      }
    </style>
  </defs>
  <path d="M6.707,12.720 C6.707,13.424 6.050,13.834 5.096,13.834 C4.549,13.834 4.094,13.701 3.853,13.546 L4.067,12.776 C4.214,12.848 4.620,13.020 5.014,13.020 C5.370,13.020 5.622,12.914 5.622,12.654 C5.622,12.388 5.321,12.244 4.998,12.244 L4.538,12.244 L4.538,11.507 L4.981,11.507 C5.222,11.507 5.535,11.429 5.535,11.197 C5.535,11.025 5.359,10.909 5.025,10.909 C4.680,10.909 4.308,11.064 4.165,11.142 L3.946,10.399 C4.198,10.244 4.697,10.100 5.255,10.100 C6.077,10.100 6.587,10.488 6.587,11.025 C6.587,11.413 6.373,11.712 5.891,11.867 L5.891,11.878 C6.335,11.933 6.707,12.255 6.707,12.720 ZM8.684,13.834 C7.616,13.834 7.189,12.953 7.189,11.967 C7.189,10.986 7.616,10.100 8.690,10.100 C9.764,10.100 10.191,10.986 10.191,11.967 C10.191,12.953 9.764,13.834 8.690,13.834 L8.684,13.834 ZM9.161,11.967 C9.161,11.202 8.975,10.859 8.690,10.859 C8.405,10.859 8.219,11.202 8.219,11.967 C8.219,12.731 8.405,13.080 8.690,13.080 L8.695,13.080 C8.975,13.080 9.161,12.731 9.161,11.967 ZM12.974,13.812 C12.426,13.812 12.081,13.779 11.878,13.746 L11.878,10.083 C12.234,10.028 12.700,10.000 13.176,10.000 C13.954,10.000 14.431,10.116 14.836,10.377 C15.269,10.653 15.570,11.108 15.570,11.790 C15.570,12.565 15.252,13.036 14.891,13.314 C14.436,13.662 13.751,13.812 12.974,13.812 ZM13.275,10.792 C13.083,10.792 12.968,10.809 12.913,10.820 L12.913,12.997 C12.974,13.009 13.078,13.009 13.154,13.009 C13.910,13.020 14.464,12.660 14.464,11.845 C14.464,11.103 13.943,10.792 13.275,10.792 ZM17.137,11.668 C16.835,11.668 16.496,11.784 16.320,11.883 L16.140,11.230 C16.315,11.136 16.715,10.975 17.317,10.975 C18.243,10.975 18.638,11.446 18.638,12.177 L18.638,13.092 C18.638,13.380 18.654,13.645 18.682,13.768 L17.750,13.768 L17.695,13.535 L17.674,13.535 C17.476,13.757 17.191,13.834 16.885,13.834 C16.293,13.834 15.942,13.419 15.942,12.976 C15.942,12.244 16.589,11.906 17.608,11.906 L17.608,11.889 C17.608,11.790 17.542,11.668 17.137,11.668 ZM16.967,12.875 C16.967,13.031 17.071,13.120 17.263,13.120 C17.422,13.120 17.586,12.997 17.630,12.837 C17.641,12.792 17.641,12.737 17.641,12.687 L17.641,12.538 C17.186,12.538 16.967,12.654 16.967,12.875 ZM18.928,11.041 L20.084,11.041 L20.440,12.222 C20.484,12.377 20.538,12.598 20.577,12.731 L20.599,12.731 C20.637,12.587 20.681,12.366 20.714,12.222 L20.982,11.041 L22.111,11.041 L21.541,12.598 C21.042,13.978 20.747,14.372 20.451,14.616 C20.122,14.887 19.771,14.976 19.481,14.998 L19.289,14.123 C19.382,14.117 19.498,14.089 19.624,14.045 C19.760,14.000 19.908,13.879 19.974,13.801 C20.007,13.763 20.029,13.712 20.029,13.673 C20.029,13.640 20.023,13.596 19.985,13.513 L18.928,11.041 ZM22.692,6.719 L18.458,6.407 L18.564,4.940 L20.415,5.077 C18.361,2.795 15.450,1.470 12.358,1.470 C6.346,1.470 1.454,6.417 1.454,12.498 C1.454,18.580 6.346,23.528 12.358,23.528 C15.994,23.528 19.379,21.698 21.416,18.632 L22.623,19.453 C20.316,22.926 16.479,24.999 12.358,24.999 C5.544,24.999 -0.000,19.392 -0.000,12.498 C-0.000,5.606 5.544,-0.002 12.358,-0.002 C15.832,-0.002 19.104,1.472 21.428,4.016 L21.549,2.331 L23.000,2.438 L22.692,6.719 Z" class="cls-1"/>
</svg>
