<svg xmlns="http://www.w3.org/2000/svg" xmlns:xlink="http://www.w3.org/1999/xlink" preserveAspectRatio="xMidYMid" width="60" height="60" viewBox="0 0 60 60">
  <defs>
    <style>
      .cls-1 {
        fill: #ffb534;
      }

      .cls-2 {
        fill: #fff;
        fill-rule: evenodd;
      }
    </style>
  </defs>
  <g>
    <rect width="60" height="60" class="cls-1"/>
    <path d="M36.011,35.162 C36.357,35.162 36.637,35.439 36.637,35.781 C36.637,36.123 36.357,36.400 36.011,36.400 L26.657,36.400 C26.312,36.400 26.031,36.123 26.031,35.781 C26.031,35.439 26.312,35.162 26.657,35.162 L36.011,35.162 ZM25.321,31.119 C25.161,31.119 25.001,31.058 24.878,30.937 L21.538,27.637 C21.293,27.395 21.293,27.003 21.538,26.761 C21.782,26.519 22.179,26.519 22.424,26.761 L25.321,29.625 L30.891,24.121 C31.136,23.879 31.532,23.879 31.777,24.121 C32.022,24.363 32.022,24.755 31.777,24.996 L25.764,30.937 C25.642,31.058 25.481,31.119 25.321,31.119 ZM49.373,39.041 L47.325,39.041 C47.326,39.054 47.327,39.068 47.327,39.082 C47.327,41.243 45.547,43.001 43.360,43.001 C41.172,43.001 39.393,41.243 39.393,39.082 C39.393,39.068 39.394,39.054 39.394,39.041 L25.278,39.041 C25.279,39.054 25.280,39.068 25.280,39.082 C25.280,41.243 23.500,43.001 21.313,43.001 C19.125,43.001 17.346,41.243 17.346,39.082 C17.346,39.068 17.347,39.054 17.347,39.041 L13.964,39.041 C13.250,39.041 12.669,38.467 12.669,37.761 L12.669,36.400 L10.623,36.400 C10.277,36.400 9.997,36.123 9.997,35.781 C9.997,35.439 10.277,35.162 10.623,35.162 L16.636,35.162 C16.982,35.162 17.262,35.439 17.262,35.781 C17.262,36.123 16.982,36.400 16.636,36.400 L13.922,36.400 L13.922,37.761 C13.922,37.785 13.941,37.803 13.964,37.803 L17.564,37.803 C18.102,36.268 19.579,35.162 21.313,35.162 C23.047,35.162 24.524,36.268 25.061,37.803 L38.057,37.803 L38.057,33.140 C38.057,32.799 38.337,32.522 38.683,32.522 C39.029,32.522 39.310,32.799 39.310,33.140 L39.310,37.803 L39.611,37.803 C40.149,36.268 41.626,35.162 43.360,35.162 C45.094,35.162 46.571,36.268 47.109,37.803 L48.746,37.803 L48.746,35.080 L48.036,35.080 C46.954,35.080 46.074,34.210 46.074,33.140 L46.074,31.820 C46.074,31.478 46.354,31.201 46.700,31.201 L48.648,31.201 C48.383,30.389 47.611,29.799 46.702,29.798 C46.701,29.798 46.700,29.798 46.700,29.798 C46.699,29.798 46.699,29.798 46.698,29.798 L39.310,29.798 L39.310,30.500 C39.310,30.842 39.029,31.119 38.683,31.119 C38.337,31.119 38.057,30.842 38.057,30.500 L38.057,19.277 C38.057,19.255 38.038,19.236 38.015,19.236 L13.964,19.236 C13.941,19.236 13.922,19.255 13.922,19.277 L13.922,30.499 C13.922,30.842 13.641,31.119 13.296,31.119 C12.950,31.119 12.669,30.842 12.669,30.499 L12.669,19.277 C12.669,18.572 13.250,17.998 13.964,17.998 L38.015,17.998 C38.729,17.998 39.310,18.572 39.310,19.277 L39.310,20.639 L44.028,20.639 C45.478,20.639 46.659,21.805 46.659,23.239 L46.659,23.898 C46.659,24.196 46.446,24.444 46.163,24.504 L47.199,28.597 C48.782,28.836 49.999,30.190 49.999,31.820 L49.999,38.422 C49.999,38.763 49.719,39.041 49.373,39.041 ZM21.313,36.400 C19.816,36.400 18.599,37.603 18.599,39.082 C18.599,40.561 19.816,41.763 21.313,41.763 C22.809,41.763 24.027,40.561 24.027,39.082 C24.027,37.603 22.809,36.400 21.313,36.400 ZM43.360,36.400 C41.863,36.400 40.646,37.603 40.646,39.082 C40.646,40.561 41.863,41.763 43.360,41.763 C44.856,41.763 46.074,40.561 46.074,39.082 C46.074,37.603 44.856,36.400 43.360,36.400 ZM45.406,23.239 C45.406,22.487 44.788,21.877 44.028,21.877 L39.310,21.877 L39.310,23.279 L45.406,23.279 L45.406,23.239 ZM44.875,24.517 L39.310,24.517 L39.310,28.561 L45.898,28.561 L44.875,24.517 ZM48.746,32.439 L47.327,32.439 L47.327,33.140 C47.327,33.527 47.645,33.842 48.036,33.842 L48.746,33.842 L48.746,32.439 ZM43.360,40.361 C42.646,40.361 42.065,39.787 42.065,39.082 C42.065,38.376 42.646,37.803 43.360,37.803 C44.074,37.803 44.654,38.376 44.654,39.082 C44.654,39.787 44.074,40.361 43.360,40.361 ZM21.313,40.361 C20.599,40.361 20.018,39.787 20.018,39.082 C20.018,38.376 20.599,37.803 21.313,37.803 C22.027,37.803 22.607,38.376 22.607,39.082 C22.607,39.787 22.027,40.361 21.313,40.361 ZM20.603,33.140 C20.603,33.482 20.322,33.760 19.977,33.760 L11.959,33.760 C11.613,33.760 11.333,33.482 11.333,33.140 C11.333,32.799 11.613,32.522 11.959,32.522 L19.977,32.522 C20.322,32.522 20.603,32.799 20.603,33.140 Z" class="cls-2"/>
  </g>
</svg>
