<svg xmlns="http://www.w3.org/2000/svg" xmlns:xlink="http://www.w3.org/1999/xlink" preserveAspectRatio="xMidYMid" width="60" height="60" viewBox="0 0 60 60">
  <defs>
    <style>
      .cls-1 {
        fill: #34c3ff;
      }

      .cls-2 {
        fill: #fff;
        fill-rule: evenodd;
      }
    </style>
  </defs>
  <g>
    <rect width="60" height="60" class="cls-1"/>
    <path d="M25.707,30.720 C25.707,31.424 25.050,31.834 24.096,31.834 C23.549,31.834 23.094,31.701 22.853,31.546 L23.067,30.776 C23.214,30.848 23.620,31.020 24.014,31.020 C24.370,31.020 24.622,30.914 24.622,30.654 C24.622,30.388 24.321,30.244 23.998,30.244 L23.538,30.244 L23.538,29.507 L23.981,29.507 C24.222,29.507 24.535,29.429 24.535,29.197 C24.535,29.025 24.359,28.909 24.025,28.909 C23.680,28.909 23.308,29.064 23.165,29.142 L22.946,28.399 C23.198,28.244 23.697,28.100 24.255,28.100 C25.077,28.100 25.587,28.488 25.587,29.025 C25.587,29.413 25.373,29.712 24.891,29.867 L24.891,29.878 C25.335,29.933 25.707,30.255 25.707,30.720 ZM27.684,31.834 C26.616,31.834 26.189,30.953 26.189,29.967 C26.189,28.986 26.616,28.100 27.690,28.100 C28.764,28.100 29.191,28.986 29.191,29.967 C29.191,30.953 28.764,31.834 27.690,31.834 L27.684,31.834 ZM28.161,29.967 C28.161,29.202 27.975,28.859 27.690,28.859 C27.405,28.859 27.219,29.202 27.219,29.967 C27.219,30.731 27.405,31.080 27.690,31.080 L27.695,31.080 C27.975,31.080 28.161,30.731 28.161,29.967 ZM31.974,31.812 C31.426,31.812 31.081,31.779 30.878,31.746 L30.878,28.083 C31.234,28.028 31.700,28.000 32.176,28.000 C32.954,28.000 33.431,28.116 33.836,28.377 C34.269,28.653 34.570,29.108 34.570,29.790 C34.570,30.565 34.252,31.036 33.891,31.314 C33.436,31.662 32.751,31.812 31.974,31.812 ZM32.275,28.792 C32.083,28.792 31.968,28.809 31.913,28.820 L31.913,30.997 C31.974,31.009 32.078,31.009 32.154,31.009 C32.910,31.020 33.464,30.660 33.464,29.845 C33.464,29.103 32.943,28.792 32.275,28.792 ZM36.137,29.668 C35.835,29.668 35.496,29.784 35.320,29.883 L35.140,29.230 C35.315,29.136 35.715,28.975 36.317,28.975 C37.243,28.975 37.638,29.446 37.638,30.177 L37.638,31.092 C37.638,31.380 37.654,31.645 37.682,31.768 L36.750,31.768 L36.695,31.535 L36.674,31.535 C36.476,31.757 36.191,31.834 35.885,31.834 C35.293,31.834 34.942,31.419 34.942,30.976 C34.942,30.244 35.589,29.906 36.608,29.906 L36.608,29.889 C36.608,29.790 36.542,29.668 36.137,29.668 ZM35.967,30.875 C35.967,31.031 36.071,31.120 36.263,31.120 C36.422,31.120 36.586,30.997 36.630,30.837 C36.641,30.792 36.641,30.737 36.641,30.687 L36.641,30.538 C36.186,30.538 35.967,30.654 35.967,30.875 ZM37.928,29.041 L39.084,29.041 L39.440,30.222 C39.484,30.377 39.538,30.598 39.577,30.731 L39.599,30.731 C39.637,30.587 39.681,30.366 39.714,30.222 L39.982,29.041 L41.111,29.041 L40.541,30.598 C40.042,31.978 39.747,32.372 39.451,32.616 C39.122,32.887 38.771,32.976 38.481,32.998 L38.289,32.123 C38.382,32.117 38.498,32.089 38.624,32.045 C38.760,32.000 38.908,31.879 38.974,31.801 C39.007,31.763 39.029,31.712 39.029,31.673 C39.029,31.640 39.023,31.596 38.985,31.513 L37.928,29.041 ZM41.692,24.719 L37.458,24.407 L37.564,22.940 L39.415,23.077 C37.361,20.795 34.450,19.470 31.358,19.470 C25.346,19.470 20.454,24.417 20.454,30.498 C20.454,36.580 25.346,41.528 31.358,41.528 C34.994,41.528 38.379,39.698 40.416,36.632 L41.623,37.453 C39.316,40.926 35.479,42.999 31.358,42.999 C24.544,42.999 19.000,37.392 19.000,30.498 C19.000,23.606 24.544,17.998 31.358,17.998 C34.832,17.998 38.104,19.472 40.428,22.016 L40.549,20.331 L42.000,20.438 L41.692,24.719 Z" class="cls-2"/>
  </g>
</svg>
