<svg xmlns="http://www.w3.org/2000/svg" xmlns:xlink="http://www.w3.org/1999/xlink" preserveAspectRatio="xMidYMid" width="60" height="60" viewBox="0 0 60 60">
  <defs>
    <style>
      .cls-1 {
        fill: #fe3e57;
      }

      .cls-2 {
        fill: #fff;
        fill-rule: evenodd;
      }
    </style>
  </defs>
  <g>
    <rect width="60" height="60" class="cls-1"/>
    <path d="M42.495,32.209 L38.346,36.974 C38.155,37.194 37.936,37.389 37.694,37.553 C37.688,37.556 37.682,37.560 37.677,37.563 C37.001,37.985 36.152,38.199 35.151,38.199 L28.995,38.199 C28.571,38.199 28.143,38.222 27.721,38.271 L27.025,38.347 L27.329,38.636 C27.426,38.727 27.483,38.854 27.485,38.986 C27.488,39.119 27.435,39.251 27.339,39.346 L23.846,42.846 C23.745,42.946 23.612,42.997 23.479,42.997 C23.352,42.997 23.226,42.951 23.127,42.859 L17.161,37.313 C17.063,37.221 17.006,37.095 17.003,36.962 C17.000,36.829 17.051,36.700 17.146,36.605 L20.673,33.029 C20.768,32.933 20.902,32.877 21.039,32.876 C21.041,32.876 21.041,32.876 21.043,32.876 C21.176,32.876 21.305,32.927 21.401,33.018 L22.126,33.706 C22.404,33.323 22.845,32.801 23.448,32.319 C24.932,31.137 26.688,30.774 28.526,31.271 C29.231,31.461 29.975,31.557 30.738,31.557 L34.784,31.557 C35.373,31.557 35.893,31.784 36.248,32.197 C36.321,32.281 36.387,32.372 36.444,32.468 L39.334,29.676 C39.757,29.262 40.325,29.052 40.932,29.082 C41.465,29.109 41.995,29.326 42.384,29.676 C43.160,30.376 43.205,31.393 42.495,32.209 ZM21.055,34.082 L18.239,36.936 L23.466,41.796 L26.251,39.006 L21.055,34.082 ZM41.691,30.411 C41.275,30.036 40.531,29.920 40.056,30.384 L36.727,33.601 C36.712,34.081 36.543,34.531 36.245,34.873 C35.887,35.284 35.363,35.511 34.768,35.511 L31.246,35.511 C30.963,35.511 30.734,35.288 30.734,35.011 C30.734,34.736 30.963,34.512 31.246,34.512 L34.768,34.512 C35.066,34.512 35.300,34.416 35.465,34.226 C35.618,34.052 35.705,33.799 35.705,33.533 C35.705,33.171 35.511,32.556 34.784,32.556 L30.738,32.556 C29.883,32.556 29.047,32.447 28.253,32.233 C26.727,31.820 25.328,32.110 24.095,33.093 C23.502,33.566 23.092,34.087 22.870,34.409 L26.075,37.446 L27.605,37.278 C28.064,37.226 28.532,37.200 28.995,37.200 L35.151,37.200 C35.949,37.200 36.611,37.041 37.118,36.728 C37.284,36.614 37.435,36.479 37.567,36.328 L41.715,31.562 C42.195,31.012 41.906,30.604 41.691,30.411 ZM29.275,35.499 C29.236,35.508 29.196,35.513 29.157,35.513 C28.926,35.513 28.716,35.357 28.660,35.127 L28.655,35.106 C28.591,34.838 28.762,34.569 29.037,34.507 C29.312,34.444 29.587,34.611 29.651,34.879 L29.656,34.899 C29.720,35.168 29.550,35.436 29.275,35.499 ZM38.315,28.533 L33.332,28.533 C33.060,28.533 32.809,28.448 32.605,28.301 C32.401,28.448 32.150,28.533 31.879,28.533 L26.896,28.533 C26.624,28.533 26.373,28.448 26.169,28.301 C25.964,28.448 25.713,28.533 25.442,28.533 L20.459,28.533 C19.777,28.533 19.221,27.991 19.221,27.324 L19.221,25.056 C19.221,24.037 19.805,23.151 20.680,22.715 C20.256,22.216 20.001,21.576 20.001,20.878 C20.001,19.291 21.324,17.998 22.950,17.998 C24.577,17.998 25.900,19.291 25.900,20.878 C25.900,21.576 25.645,22.216 25.222,22.714 C25.599,22.903 25.923,23.176 26.169,23.507 C26.414,23.176 26.738,22.903 27.116,22.715 C26.692,22.216 26.437,21.576 26.437,20.878 C26.437,19.291 27.760,17.998 29.387,17.998 C31.013,17.998 32.337,19.291 32.337,20.878 C32.337,21.576 32.082,22.216 31.658,22.714 C32.036,22.903 32.359,23.176 32.605,23.507 C32.851,23.176 33.174,22.903 33.552,22.714 C33.128,22.216 32.873,21.576 32.873,20.878 C32.873,19.291 34.197,17.998 35.823,17.998 C37.450,17.998 38.773,19.291 38.773,20.878 C38.773,21.576 38.518,22.216 38.094,22.714 C38.969,23.151 39.553,24.036 39.553,25.055 L39.553,27.324 C39.553,27.991 38.997,28.533 38.315,28.533 ZM22.951,18.997 C21.888,18.997 21.024,19.841 21.024,20.878 C21.024,21.916 21.888,22.760 22.951,22.760 C24.013,22.760 24.878,21.916 24.878,20.878 C24.878,19.841 24.013,18.997 22.951,18.997 ZM25.658,25.055 C25.658,24.253 25.074,23.584 24.279,23.449 C23.879,23.646 23.428,23.759 22.951,23.759 C22.473,23.759 22.022,23.646 21.622,23.449 C20.828,23.584 20.244,24.253 20.244,25.055 L20.244,27.324 C20.244,27.440 20.340,27.535 20.459,27.535 L25.442,27.535 C25.561,27.535 25.658,27.440 25.658,27.324 L25.658,25.055 ZM29.387,18.997 C28.324,18.997 27.460,19.841 27.460,20.878 C27.460,21.916 28.324,22.760 29.387,22.760 C30.450,22.760 31.314,21.916 31.314,20.878 C31.314,19.841 30.450,18.997 29.387,18.997 ZM32.094,25.055 C32.094,24.253 31.510,23.584 30.715,23.449 C30.316,23.646 29.865,23.759 29.387,23.759 C28.909,23.759 28.458,23.646 28.059,23.449 C27.264,23.584 26.680,24.253 26.680,25.055 L26.680,27.324 C26.680,27.440 26.777,27.535 26.896,27.535 L31.879,27.535 C31.997,27.535 32.094,27.440 32.094,27.324 L32.094,25.055 ZM35.823,18.997 C34.761,18.997 33.896,19.841 33.896,20.878 C33.896,21.916 34.761,22.760 35.823,22.760 C36.886,22.760 37.750,21.916 37.750,20.878 C37.750,19.841 36.886,18.997 35.823,18.997 ZM38.530,25.055 C38.530,24.253 37.946,23.584 37.152,23.449 C36.752,23.646 36.301,23.759 35.823,23.759 C35.346,23.759 34.894,23.646 34.495,23.449 C33.700,23.584 33.116,24.253 33.117,25.055 L33.117,27.324 C33.117,27.440 33.213,27.535 33.332,27.535 L38.315,27.535 C38.433,27.535 38.530,27.440 38.530,27.324 L38.530,25.055 Z" class="cls-2"/>
  </g>
</svg>
