<?xml version="1.0" encoding="UTF-8"?>
<svg xmlns="http://www.w3.org/2000/svg" xmlns:xlink="http://www.w3.org/1999/xlink" width="10px" height="px" viewBox="0 0 10 10" version="1.1">
<g id="surface1">
<path style=" stroke:none;fill-rule:nonzero;fill:rgb(0%,0%,0%);fill-opacity:1;" d="M 10 5.113281 C 10 7.875 8.015625 9.84375 5.082031 9.84375 C 2.269531 9.84375 0 7.679688 0 5 C 0 2.320312 2.269531 0.15625 5.082031 0.15625 C 6.449219 0.15625 7.601562 0.632812 8.488281 1.421875 L 7.105469 2.691406 C 5.296875 1.027344 1.933594 2.277344 1.933594 5 C 1.933594 6.6875 3.347656 8.058594 5.082031 8.058594 C 7.09375 8.058594 7.847656 6.683594 7.96875 5.972656 L 5.082031 5.972656 L 5.082031 4.304688 L 9.921875 4.304688 C 9.96875 4.554688 10 4.792969 10 5.113281 Z M 10 5.113281 "/>
</g>
</svg>
