<svg xmlns="http://www.w3.org/2000/svg" xmlns:xlink="http://www.w3.org/1999/xlink" preserveAspectRatio="xMidYMid" width="15" height="15" viewBox="0 0 15 15">
  <defs>
    <style>
      .cls-1 {
        fill: #fe3e57;
        fill-rule: evenodd;
      }
    </style>
  </defs>
  <path d="M-0.000,3.750 L3.750,3.750 L3.750,-0.000 L-0.000,-0.000 L-0.000,3.750 ZM5.625,15.000 L9.375,15.000 L9.375,11.250 L5.625,11.250 L5.625,15.000 ZM-0.000,15.000 L3.750,15.000 L3.750,11.250 L-0.000,11.250 L-0.000,15.000 ZM-0.000,9.375 L3.750,9.375 L3.750,5.625 L-0.000,5.625 L-0.000,9.375 ZM5.625,9.375 L9.375,9.375 L9.375,5.625 L5.625,5.625 L5.625,9.375 ZM11.250,-0.000 L11.250,3.750 L15.000,3.750 L15.000,-0.000 L11.250,-0.000 ZM5.625,3.750 L9.375,3.750 L9.375,-0.000 L5.625,-0.000 L5.625,3.750 ZM11.250,9.375 L15.000,9.375 L15.000,5.625 L11.250,5.625 L11.250,9.375 ZM11.250,15.000 L15.000,15.000 L15.000,11.250 L11.250,11.250 L11.250,15.000 Z" class="cls-1"/>
</svg>
