
<svg xmlns="http://www.w3.org/2000/svg" xmlns:xlink="http://www.w3.org/1999/xlink" width="14px" height="14px" viewBox="0 0 14 14" version="1.1">
<g id="surface1">
<path style=" stroke:none;fill-rule:nonzero;fill:rgb(0%,0%,0%);fill-opacity:1;" d="M 6.585938 7 L 8.652344 4.933594 C 8.878906 4.707031 8.878906 4.339844 8.652344 4.113281 C 8.542969 4.003906 8.390625 3.941406 8.238281 3.941406 C 8.082031 3.941406 7.933594 4.003906 7.824219 4.113281 L 5.347656 6.585938 C 5.238281 6.695312 5.175781 6.84375 5.175781 7 C 5.175781 7.15625 5.238281 7.304688 5.347656 7.414062 L 7.824219 9.917969 C 7.933594 10.027344 8.082031 10.085938 8.238281 10.085938 C 8.390625 10.085938 8.539062 10.027344 8.652344 9.917969 C 8.878906 9.6875 8.878906 9.320312 8.652344 9.09375 Z M 6.585938 7 "/>
</g>
</svg>
