<?xml version="1.0" encoding="UTF-8"?>
<svg xmlns="http://www.w3.org/2000/svg" xmlns:xlink="http://www.w3.org/1999/xlink" width="10px" height="11px" viewBox="0 0 10 11" version="1.1">
<g id="surface1">
<path style=" stroke:none;fill-rule:nonzero;fill:rgb(0%,0%,0%);fill-opacity:1;" d="M 2.238281 9.625 L 0.164062 9.625 L 0.164062 3.199219 L 2.238281 3.199219 Z M 1.199219 2.324219 C 0.539062 2.324219 0 1.792969 0 1.15625 C 0 0.519531 0.539062 0 1.199219 0 C 1.863281 0 2.402344 0.519531 2.402344 1.15625 C 2.402344 1.792969 1.863281 2.324219 1.199219 2.324219 Z M 9.996094 9.625 L 7.929688 9.625 L 7.929688 6.496094 C 7.929688 5.75 7.914062 4.796875 6.851562 4.796875 C 5.773438 4.796875 5.609375 5.605469 5.609375 6.441406 L 5.609375 9.625 L 3.535156 9.625 L 3.535156 3.199219 L 5.527344 3.199219 L 5.527344 4.074219 L 5.554688 4.074219 C 5.832031 3.570312 6.507812 3.039062 7.515625 3.039062 C 9.613281 3.039062 10 4.367188 10 6.09375 L 10 9.625 Z M 9.996094 9.625 "/>
</g>
</svg>
