<svg xmlns="http://www.w3.org/2000/svg" xmlns:xlink="http://www.w3.org/1999/xlink" preserveAspectRatio="xMidYMid" width="20" height="15" viewBox="0 0 20 15">
  <defs>
    <style>
      .cls-1 {
        fill: #8d8d8d;
        fill-rule: evenodd;
      }
    </style>
  </defs>
  <path d="M5.835,14.998 L5.835,10.827 L19.994,10.827 L19.994,14.998 L5.835,14.998 ZM5.835,5.413 L19.994,5.413 L19.994,9.585 L5.835,9.585 L5.835,5.413 ZM5.835,0.000 L19.994,0.000 L19.994,4.172 L5.835,4.172 L5.835,0.000 ZM0.007,10.827 L4.429,10.827 L4.429,14.998 L0.007,14.998 L0.007,10.827 ZM0.007,5.413 L4.429,5.413 L4.429,9.585 L0.007,9.585 L0.007,5.413 ZM0.007,0.000 L4.429,0.000 L4.429,4.172 L0.007,4.172 L0.007,0.000 Z" class="cls-1"/>
</svg>
