<svg xmlns="http://www.w3.org/2000/svg" xmlns:xlink="http://www.w3.org/1999/xlink" preserveAspectRatio="xMidYMid" width="20" height="19.97" viewBox="0 0 20 19.97">
  <defs>
    <style>
      .cls-1 {
        fill: #fe3e57;
        fill-rule: evenodd;
      }
    </style>
  </defs>
  <path d="M19.477,17.219 L19.062,17.633 L14.093,12.660 L14.507,12.245 C15.171,11.580 16.329,11.582 16.992,12.245 L19.477,14.732 C20.162,15.417 20.165,16.530 19.477,17.219 ZM9.613,18.123 L1.839,10.339 C-0.515,7.983 -0.598,4.233 1.535,1.745 L6.493,6.707 C6.088,7.229 6.104,7.976 6.583,8.455 L11.495,13.375 C11.973,13.855 12.719,13.871 13.242,13.465 L18.200,18.428 C15.573,20.684 11.872,20.384 9.613,18.123 ZM7.298,5.855 L2.329,0.882 L2.743,0.467 C3.407,-0.198 4.565,-0.197 5.228,0.467 L7.713,2.954 C8.398,3.639 8.400,4.752 7.713,5.441 L7.298,5.855 Z" class="cls-1"/>
</svg>
