<svg xmlns="http://www.w3.org/2000/svg" xmlns:xlink="http://www.w3.org/1999/xlink" width="10px" height="13px" viewBox="0 0 10 13" version="1.1">
<g id="surface1">
<path style=" stroke:none;fill-rule:nonzero;fill:rgb(0%,0%,0%);fill-opacity:1;" d="M 5.3125 0.164062 C 2.640625 0.164062 0 1.902344 0 4.710938 C 0 6.5 1.03125 7.515625 1.65625 7.515625 C 1.914062 7.515625 2.0625 6.816406 2.0625 6.617188 C 2.0625 6.378906 1.445312 5.878906 1.445312 4.894531 C 1.445312 2.855469 3.039062 1.40625 5.101562 1.40625 C 6.875 1.40625 8.1875 2.390625 8.1875 4.195312 C 8.1875 5.542969 7.632812 8.070312 5.835938 8.070312 C 5.1875 8.070312 4.632812 7.613281 4.632812 6.960938 C 4.632812 6 5.320312 5.070312 5.320312 4.082031 C 5.320312 2.398438 2.875 2.703125 2.875 4.734375 C 2.875 5.160156 2.929688 5.632812 3.125 6.023438 C 2.765625 7.53125 2.03125 9.777344 2.03125 11.332031 C 2.03125 11.8125 2.101562 12.285156 2.148438 12.765625 C 2.238281 12.859375 2.191406 12.851562 2.328125 12.800781 C 3.640625 11.050781 3.59375 10.707031 4.1875 8.414062 C 4.507812 9.007812 5.335938 9.328125 5.992188 9.328125 C 8.757812 9.328125 10 6.699219 10 4.332031 C 10 1.808594 7.765625 0.164062 5.3125 0.164062 Z M 5.3125 0.164062 "/>
</g>
</svg>
