<?xml version="1.0" encoding="UTF-8"?>
<svg xmlns="http://www.w3.org/2000/svg" xmlns:xlink="http://www.w3.org/1999/xlink" width="14px" height="14px" viewBox="0 0 14 14" version="1.1">
<g id="surface1">
<path style=" stroke:none;fill-rule:nonzero;fill:rgb(0%,0%,0%);fill-opacity:1;" d="M 8.652344 6.585938 L 6.175781 4.113281 C 6.066406 4.003906 5.917969 3.941406 5.761719 3.941406 C 5.609375 3.941406 5.457031 4.003906 5.347656 4.113281 C 5.121094 4.339844 5.121094 4.707031 5.347656 4.933594 L 7.414062 7 L 5.347656 9.066406 C 5.121094 9.292969 5.121094 9.660156 5.347656 9.886719 C 5.460938 9.996094 5.609375 10.058594 5.761719 10.058594 C 5.917969 10.058594 6.066406 9.996094 6.175781 9.886719 L 8.652344 7.414062 C 8.761719 7.304688 8.824219 7.15625 8.824219 7 C 8.824219 6.84375 8.761719 6.695312 8.652344 6.585938 Z M 8.652344 6.585938 "/>
</g>
</svg>
