<svg xmlns="http://www.w3.org/2000/svg" xmlns:xlink="http://www.w3.org/1999/xlink" preserveAspectRatio="xMidYMid" width="20" height="20" viewBox="0 0 20 20">
  <defs>
    <style>
      .cls-1 {
        fill: #a3bbc8;
        fill-rule: evenodd;
      }
    </style>
  </defs>
  <path d="M19.450,19.448 C18.719,20.181 17.531,20.181 16.799,19.448 L12.211,14.860 C13.274,14.178 14.178,13.272 14.862,12.209 L19.450,16.798 C20.183,17.530 20.183,18.718 19.450,19.448 ZM7.500,14.999 C3.358,14.999 -0.000,11.640 -0.000,7.499 C-0.000,3.357 3.358,-0.002 7.500,-0.002 C11.642,-0.002 15.000,3.357 15.000,7.499 C15.000,11.640 11.642,14.999 7.500,14.999 ZM7.500,1.873 C4.398,1.873 1.875,4.397 1.875,7.499 C1.875,10.601 4.398,13.123 7.500,13.123 C10.602,13.123 13.125,10.601 13.125,7.499 C13.125,4.397 10.602,1.873 7.500,1.873 ZM4.375,7.499 L3.125,7.499 C3.125,5.087 5.088,3.123 7.500,3.123 L7.500,4.374 C5.777,4.374 4.375,5.776 4.375,7.499 Z" class="cls-1"/>
</svg>
