<svg xmlns="http://www.w3.org/2000/svg" xmlns:xlink="http://www.w3.org/1999/xlink" preserveAspectRatio="xMidYMid" width="15" height="15" viewBox="0 0 15 15">
  <defs>
    <style>
      .cls-1 {
        fill: #fff;
        fill-rule: evenodd;
      }
    </style>
  </defs>
  <path d="M11.008,9.681 C11.746,8.674 12.187,7.435 12.187,6.093 C12.187,2.733 9.453,-0.001 6.094,-0.001 C2.734,-0.001 -0.000,2.733 -0.000,6.093 C-0.000,9.453 2.734,12.187 6.094,12.187 C7.436,12.187 8.674,11.745 9.682,11.007 L13.674,15.000 L15.000,13.673 L11.008,9.681 L11.008,9.681 ZM6.094,10.312 C3.767,10.312 1.875,8.419 1.875,6.093 C1.875,3.767 3.767,1.874 6.094,1.874 C8.420,1.874 10.312,3.767 10.312,6.093 C10.312,8.419 8.420,10.312 6.094,10.312 L6.094,10.312 Z" class="cls-1"/>
</svg>
