<svg xmlns="http://www.w3.org/2000/svg" xmlns:xlink="http://www.w3.org/1999/xlink" width="10px" height="px" viewBox="0 0 10 10" version="1.1">
<g id="surface1">
<path style=" stroke:none;fill-rule:nonzero;fill:rgb(0%,0%,0%);fill-opacity:1;" d="M 8.972656 2.964844 C 8.976562 3.050781 8.976562 3.140625 8.976562 3.230469 C 8.976562 5.9375 6.917969 9.0625 3.148438 9.0625 C 1.984375 9.0625 0.90625 8.726562 0 8.140625 C 0.164062 8.160156 0.324219 8.167969 0.496094 8.167969 C 1.453125 8.167969 2.335938 7.84375 3.039062 7.289062 C 2.136719 7.273438 1.382812 6.679688 1.125 5.871094 C 1.25 5.886719 1.375 5.902344 1.511719 5.902344 C 1.695312 5.902344 1.878906 5.875 2.050781 5.832031 C 1.109375 5.640625 0.40625 4.816406 0.40625 3.820312 L 0.40625 3.792969 C 0.679688 3.945312 0.996094 4.042969 1.332031 4.054688 C 0.78125 3.6875 0.417969 3.058594 0.417969 2.347656 C 0.417969 1.96875 0.519531 1.617188 0.699219 1.3125 C 1.707031 2.558594 3.222656 3.371094 4.921875 3.457031 C 4.890625 3.304688 4.875 3.148438 4.875 2.988281 C 4.875 1.859375 5.785156 0.9375 6.921875 0.9375 C 7.511719 0.9375 8.046875 1.1875 8.421875 1.585938 C 8.882812 1.496094 9.328125 1.324219 9.722656 1.089844 C 9.570312 1.566406 9.246094 1.96875 8.820312 2.222656 C 9.230469 2.175781 9.632812 2.0625 10 1.902344 C 9.722656 2.308594 9.371094 2.671875 8.972656 2.964844 Z M 8.972656 2.964844 "/>
</g>
</svg>
