<?xml version="1.0" encoding="UTF-8"?>
<svg xmlns="http://www.w3.org/2000/svg" xmlns:xlink="http://www.w3.org/1999/xlink" width="10px" height="12px" viewBox="0 0 10 11" version="1.1">
<g id="surface1">
<path style=" stroke:none;fill-rule:nonzero;fill:rgb(0%,0%,0%);fill-opacity:1;" d="M 9.789062 5.984375 C 10.070312 5.71875 10.070312 5.28125 9.789062 5.011719 L 6.21875 1.574219 C 5.941406 1.304688 5.488281 1.304688 5.207031 1.574219 C 4.929688 1.84375 4.929688 2.28125 5.207031 2.546875 L 7.5625 4.8125 L 0.714844 4.8125 C 0.320312 4.8125 0 5.121094 0 5.5 C 0 5.878906 0.320312 6.1875 0.714844 6.1875 L 7.558594 6.1875 L 5.210938 8.453125 C 4.929688 8.71875 4.929688 9.15625 5.210938 9.425781 C 5.488281 9.695312 5.941406 9.695312 6.222656 9.425781 L 9.792969 5.988281 Z M 9.789062 5.984375 "/>
</g>
</svg>
