<svg xmlns="http://www.w3.org/2000/svg" xmlns:xlink="http://www.w3.org/1999/xlink" width="16px" height="18px" viewBox="0 0 16 18" version="1.1">
<g>
<path d="M 4.570312 0 C 5.203125 0 5.714844 0.503906 5.714844 1.125 L 5.714844 2.25 L 10.285156 2.25 L 10.285156 1.125 C 10.285156 0.503906 10.796875 0 11.429688 0 C 12.0625 0 12.570312 0.503906 12.570312 1.125 L 12.570312 2.25 L 14.285156 2.25 C 15.230469 2.25 16 3.007812 16 3.9375 L 16 5.625 L 0 5.625 L 0 3.9375 C 0 3.007812 0.769531 2.25 1.714844 2.25 L 3.429688 2.25 L 3.429688 1.125 C 3.429688 0.503906 3.9375 0 4.570312 0 Z M 0 6.75 L 16 6.75 L 16 16.3125 C 16 17.242188 15.230469 18 14.285156 18 L 1.714844 18 C 0.769531 18 0 17.242188 0 16.3125 Z M 2.285156 9.5625 L 2.285156 10.6875 C 2.285156 10.996094 2.542969 11.25 2.855469 11.25 L 4 11.25 C 4.3125 11.25 4.570312 10.996094 4.570312 10.6875 L 4.570312 9.5625 C 4.570312 9.253906 4.3125 9 4 9 L 2.855469 9 C 2.542969 9 2.285156 9.253906 2.285156 9.5625 Z M 6.855469 9.5625 L 6.855469 10.6875 C 6.855469 10.996094 7.113281 11.25 7.429688 11.25 L 8.570312 11.25 C 8.886719 11.25 9.144531 10.996094 9.144531 10.6875 L 9.144531 9.5625 C 9.144531 9.253906 8.886719 9 8.570312 9 L 7.429688 9 C 7.113281 9 6.855469 9.253906 6.855469 9.5625 Z M 12 9 C 11.6875 9 11.429688 9.253906 11.429688 9.5625 L 11.429688 10.6875 C 11.429688 10.996094 11.6875 11.25 12 11.25 L 13.144531 11.25 C 13.457031 11.25 13.714844 10.996094 13.714844 10.6875 L 13.714844 9.5625 C 13.714844 9.253906 13.457031 9 13.144531 9 Z M 2.285156 14.0625 L 2.285156 15.1875 C 2.285156 15.496094 2.542969 15.75 2.855469 15.75 L 4 15.75 C 4.3125 15.75 4.570312 15.496094 4.570312 15.1875 L 4.570312 14.0625 C 4.570312 13.753906 4.3125 13.5 4 13.5 L 2.855469 13.5 C 2.542969 13.5 2.285156 13.753906 2.285156 14.0625 Z M 7.429688 13.5 C 7.113281 13.5 6.855469 13.753906 6.855469 14.0625 L 6.855469 15.1875 C 6.855469 15.496094 7.113281 15.75 7.429688 15.75 L 8.570312 15.75 C 8.886719 15.75 9.144531 15.496094 9.144531 15.1875 L 9.144531 14.0625 C 9.144531 13.753906 8.886719 13.5 8.570312 13.5 Z M 11.429688 14.0625 L 11.429688 15.1875 C 11.429688 15.496094 11.6875 15.75 12 15.75 L 13.144531 15.75 C 13.457031 15.75 13.714844 15.496094 13.714844 15.1875 L 13.714844 14.0625 C 13.714844 13.753906 13.457031 13.5 13.144531 13.5 L 12 13.5 C 11.6875 13.5 11.429688 13.753906 11.429688 14.0625 Z M 11.429688 14.0625 "/>
</g>
</svg>
