<?xml version="1.0" encoding="UTF-8"?>
<svg xmlns="http://www.w3.org/2000/svg" xmlns:xlink="http://www.w3.org/1999/xlink" width="20px" height="20px" viewBox="0 0 20 20" version="1.1">
<g id="surface1">
<path style=" stroke:none;fill-rule:nonzero;fill:rgb(0%,0%,0%);fill-opacity:1;" d="M 9.0625 4.6875 C 9.0625 4.167969 9.480469 3.75 10 3.75 C 10.519531 3.75 10.9375 4.167969 10.9375 4.6875 L 10.9375 9.5 L 14.269531 11.71875 C 14.699219 12.007812 14.816406 12.589844 14.496094 13.019531 C 14.242188 13.449219 13.660156 13.566406 13.230469 13.246094 L 9.480469 10.746094 C 9.21875 10.605469 9.0625 10.3125 9.0625 9.964844 Z M 10 0 C 15.523438 0 20 4.476562 20 10 C 20 15.523438 15.523438 20 10 20 C 4.476562 20 0 15.523438 0 10 C 0 4.476562 4.476562 0 10 0 Z M 1.875 10 C 1.875 14.488281 5.511719 18.125 10 18.125 C 14.488281 18.125 18.125 14.488281 18.125 10 C 18.125 5.511719 14.488281 1.875 10 1.875 C 5.511719 1.875 1.875 5.511719 1.875 10 Z M 1.875 10 "/>
</g>
</svg>
