<svg width="35" height="35" viewBox="0 0 35 35" fill="none" xmlns="http://www.w3.org/2000/svg">
<path d="M30.2 28H15.8C13.149 28 11 28.6268 11 29.4V33.6C11 34.3732 13.149 35 15.8 35H30.2C32.851 35 35 34.3732 35 33.6V29.4C35 28.6268 32.851 28 30.2 28Z" fill="#C1C1C1"/>
<path d="M5.6 28H1.4C0.626801 28 0 28.6268 0 29.4V33.6C0 34.3732 0.626801 35 1.4 35H5.6C6.3732 35 7 34.3732 7 33.6V29.4C7 28.6268 6.3732 28 5.6 28Z" fill="#C1C1C1"/>
<path d="M30.2 14H15.8C13.149 14 11 14.6268 11 15.4V19.6C11 20.3732 13.149 21 15.8 21H30.2C32.851 21 35 20.3732 35 19.6V15.4C35 14.6268 32.851 14 30.2 14Z" fill="#C1C1C1"/>
<path d="M5.6 14H1.4C0.626801 14 0 14.6268 0 15.4V19.6C0 20.3732 0.626801 21 1.4 21H5.6C6.3732 21 7 20.3732 7 19.6V15.4C7 14.6268 6.3732 14 5.6 14Z" fill="#C1C1C1"/>
<path d="M30.2 0H15.8C13.149 0 11 0.626801 11 1.4V5.6C11 6.3732 13.149 7 15.8 7H30.2C32.851 7 35 6.3732 35 5.6V1.4C35 0.626801 32.851 0 30.2 0Z" fill="#C1C1C1"/>
<path d="M5.6 0H1.4C0.626801 0 0 0.626801 0 1.4V5.6C0 6.3732 0.626801 7 1.4 7H5.6C6.3732 7 7 6.3732 7 5.6V1.4C7 0.626801 6.3732 0 5.6 0Z" fill="#C1C1C1"/>
</svg>
