<?xml version="1.0" encoding="UTF-8"?>
<svg xmlns="http://www.w3.org/2000/svg" xmlns:xlink="http://www.w3.org/1999/xlink" width="18px" height="16px" viewBox="0 0 18 16" version="1.1">
<g id="surface1">
<path style=" stroke:none;fill-rule:nonzero;fill:rgb(0%,0%,0%);fill-opacity:1;" d="M 8.996094 0 C 9.285156 0 9.546875 0.164062 9.671875 0.421875 L 11.816406 4.835938 L 16.605469 5.546875 C 16.886719 5.585938 17.117188 5.785156 17.210938 6.054688 C 17.296875 6.324219 17.226562 6.621094 17.023438 6.820312 L 13.550781 10.261719 L 14.371094 15.121094 C 14.417969 15.402344 14.304688 15.691406 14.070312 15.855469 C 13.835938 16.023438 13.503906 16.042969 13.277344 15.910156 L 8.996094 13.621094 L 4.691406 15.910156 C 4.464844 16.042969 4.160156 16.023438 3.925781 15.855469 C 3.695312 15.691406 3.578125 15.402344 3.597656 15.121094 L 4.445312 10.261719 L 0.972656 6.820312 C 0.769531 6.621094 0.699219 6.324219 0.789062 6.054688 C 0.875 5.785156 1.109375 5.585938 1.390625 5.546875 L 6.179688 4.835938 L 8.320312 0.421875 C 8.449219 0.164062 8.710938 0 8.996094 0 Z M 8.996094 2.46875 L 7.355469 5.851562 C 7.246094 6.070312 7.035156 6.226562 6.789062 6.265625 L 3.09375 6.808594 L 5.777344 9.46875 C 5.949219 9.640625 6.027344 9.886719 5.988281 10.128906 L 5.355469 13.867188 L 8.644531 12.109375 C 8.867188 11.992188 9.132812 11.992188 9.351562 12.109375 L 12.636719 13.867188 L 12.007812 10.128906 C 11.964844 9.886719 12.046875 9.640625 12.21875 9.46875 L 14.902344 6.808594 L 11.207031 6.265625 C 10.960938 6.226562 10.746094 6.070312 10.640625 5.851562 Z M 8.996094 2.46875 "/>
</g>
</svg>
