<?xml version="1.0" encoding="UTF-8"?>
<svg xmlns="http://www.w3.org/2000/svg" xmlns:xlink="http://www.w3.org/1999/xlink" width="17px" height="20px" viewBox="0 0 17 19" version="1.1">
<g id="surface1">
<path style=" stroke:none;fill-rule:nonzero;fill:rgb(0%,0%,0%);fill-opacity:1;" d="M 10.320312 11.28125 L 6.679688 11.28125 C 2.988281 11.28125 0 14.207031 0 17.8125 C 0 18.46875 0.542969 19 1.214844 19 L 15.785156 19 C 16.457031 19 17 18.46875 17 17.8125 C 17 14.207031 14.011719 11.28125 10.320312 11.28125 Z M 1.859375 17.21875 C 2.160156 14.878906 4.203125 13.0625 6.679688 13.0625 L 10.320312 13.0625 C 12.792969 13.0625 14.839844 14.878906 15.140625 17.21875 Z M 8.5 9.5 C 11.183594 9.5 13.355469 7.375 13.355469 4.75 C 13.355469 2.125 11.183594 0 8.5 0 C 5.816406 0 3.644531 2.125 3.644531 4.75 C 3.644531 7.375 5.816406 9.5 8.5 9.5 Z M 8.5 1.78125 C 10.171875 1.78125 11.535156 3.113281 11.535156 4.75 C 11.535156 6.386719 10.171875 7.71875 8.5 7.71875 C 6.828125 7.71875 5.464844 6.386719 5.464844 4.75 C 5.464844 3.113281 6.828125 1.78125 8.5 1.78125 Z M 8.5 1.78125 "/>
</g>
</svg>
